# xmcd CD database file
#
# Track frame offsets:
#	150
#	23410
#	35412
#	47272
#	64165
#	81940
#	96407
#	110595
#	126160
#	140015
#	154275
#	169705
#	180650
#
# Disc length: 2626 seconds
#
# Revision: 0
# Processed by: cddbd v1.5.1PL2 Copyright (c) Steve Scherf et al.
# Submitted via: CDex 1.60beta1
#
DISCID=aa0a400d
DTITLE=NSP - NSP? ひとやすみ
DYEAR=1974
DGENRE=JPop
TTITLE0=春はもうすぐ
TTITLE1=かげふみ
TTITLE2=なんて空だろう
TTITLE3=夜
TTITLE4=仲直り
TTITLE5=夕暮れ時はさびしそう
TTITLE6=雪どけ水はつめたくて
TTITLE7=一片の幸せ
TTITLE8=くちづけ
TTITLE9=冬がのぞいてる
TTITLE10=雪の精
TTITLE11=いなかっぺちゃん
TTITLE12=いい
EXTD=YEAR: 1974
EXTT0=
EXTT1=
EXTT2=
EXTT3=
EXTT4=
EXTT5=
EXTT6=
EXTT7=
EXTT8=
EXTT9=
EXTT10=
EXTT11=
EXTT12=
PLAYORDER=
